<svg width="230" height="66" viewBox="0 0 230 66" fill="none" xmlns="http://www.w3.org/2000/svg">
<path d="M60.8921 23.9419C60.1653 21.878 59.3937 19.8153 58.6071 17.7926C58.3667 17.1046 57.2995 17.0943 57.0557 17.7926L52.5879 29.3038C52.5488 29.3999 52.5293 29.5041 52.5293 29.614C52.5327 30.0684 52.9065 30.4336 53.363 30.4302L55.785 30.4084C57.9757 30.5057 60.2067 29.9757 62.2997 29.6014C60.7863 29.4549 58.9153 29.1092 57.4352 28.8528C56.6199 28.8333 55.5515 28.8001 54.5729 28.7829L57.84 20.3636C58.5622 22.1894 59.2856 23.9992 60.1596 25.7655C60.8967 27.0155 61.5833 28.2358 62.2997 29.6014C62.1974 29.0794 61.7293 26.719 61.6465 26.2417C61.5108 25.477 61.1198 24.6917 60.891 23.9408L60.8921 23.9419Z" fill="#FBFAF5"/>
<path d="M219.89 30.1945C219.529 29.9117 219.006 29.9736 218.722 30.3319C212.362 38.9687 199.21 36.2008 199.379 24.7617C199.211 13.3237 212.361 10.5535 218.722 19.1915C219.016 19.5658 219.574 19.6139 219.929 19.2968L229.719 10.5982C230.045 10.3143 230.095 9.82206 229.825 9.47635C228.162 7.34604 226.145 5.47673 223.845 4.04241C216.944 -0.25942 208.23 -0.887866 200.449 1.03182C191.826 3.19875 185.818 9.91936 183.73 18.0605C183.732 9.69843 183.733 2.89083 183.733 2.87709C183.733 2.42264 183.348 2.05633 182.891 2.07694C178.267 2.24979 172.073 2.70195 167.425 2.91258V2.82558C167.425 2.36769 167.052 1.99795 166.593 1.99795L124.148 1.99452C123.687 1.99452 123.312 2.36655 123.313 2.82558C123.277 4.52776 123.31 6.22995 123.373 7.93099C122.005 6.44058 120.448 5.11958 118.731 4.04355C111.861 -0.260564 103.181 -0.897024 95.4208 1.04441C84.5302 3.78714 77.9016 13.8354 78.0166 24.7617C78.0005 7.6906 95.5542 -1.34461 110.916 2.51994C115.57 3.65092 119.827 6.2082 122.862 9.89646L114.381 17.4745C106.91 8.46901 92.5745 12.0806 92.7344 24.7617C92.5745 37.4405 106.906 41.0555 114.381 32.0489L122.862 39.6269C119.827 43.3152 115.57 45.8725 110.916 47.0034C99.4803 49.8732 86.8498 45.6241 81.1331 36.226L78.9113 31.1709C78.3329 29.1849 78.0132 27.0488 78.0155 24.7617C77.9948 26.6848 78.2018 28.5999 78.6008 30.4658L66.3475 2.58519C66.2187 2.29329 65.9255 2.08838 65.5851 2.08838H50.3418C50.0221 2.08838 49.7162 2.27383 49.5793 2.58404C49.5552 2.69737 47.1885 8.06721 44.0846 15.1026C44.1042 15.0316 44.1283 14.963 44.1283 14.8851V2.91716C44.1283 2.45927 43.7557 2.08953 43.2969 2.08953L0.85142 2.08609C0.390268 2.08609 0.0153673 2.45813 0.0165173 2.91716C-0.0248828 4.91353 0.0142173 6.90762 0.103918 8.90171L0.321268 14.8863C0.312068 15.1804 0.554719 15.4277 0.85142 15.414C4.87068 15.2709 10.3159 15.0019 14.3203 14.8863L1.39997 14.3803C1.51957 11.1934 1.70357 6.96829 1.69092 3.74936L42.4643 3.74593V14.0575H29.8257C29.3657 14.0575 28.9943 14.4284 28.9943 14.8851V47.8723H15.1598C15.2713 38.1674 14.6676 24.4366 14.3191 14.8863C13.9983 26.1674 13.3359 37.4874 13.4877 48.6999C13.4877 49.1578 13.8603 49.5287 14.3191 49.5275H29.8257C29.8982 49.5275 29.9637 49.5035 30.0304 49.4863C30.0971 49.5035 30.1615 49.5275 30.234 49.5275L46.004 49.5332C46.3386 49.5332 46.6583 49.3295 46.7848 48.9998C47.6807 46.834 48.772 43.7009 49.569 41.3577L66.5695 40.7213L49.0917 40.0665C48.8249 40.055 48.5719 40.2233 48.4776 40.4854C47.5749 42.618 46.2501 45.5931 45.4163 47.8665L31.5047 47.8711L50.8858 3.74478H65.0411L84.4014 47.87C83.4952 47.8871 82.589 47.9181 81.6828 47.9467C79.2172 48.0348 72.6208 48.258 69.8769 48.3565L66.5718 40.7201L69.3445 48.8201C69.3882 48.9494 69.5158 49.0387 69.6596 49.0353C72.2609 49.1269 79.1816 49.365 81.684 49.4531C83.026 49.4955 84.3681 49.5653 85.7101 49.5435C86.3001 49.5435 86.7164 48.8945 86.4691 48.3611L82.727 39.8467C84.9684 42.9534 87.9573 45.5153 91.6235 47.1351C100.207 50.7306 110.734 50.4124 118.732 45.4764C121.022 44.0409 123.027 42.1716 124.677 40.0447C124.939 39.7059 124.898 39.2148 124.571 38.9263C124.516 38.8851 114.852 30.2288 114.793 30.1922C114.431 29.9106 113.908 29.9736 113.625 30.333C107.28 38.9882 94.2259 36.1699 94.3996 24.7617C94.2248 13.3558 107.276 10.5329 113.624 19.1904C113.919 19.5658 114.48 19.6162 114.835 19.2957L123.499 11.554C123.557 13.1291 123.618 14.797 123.618 14.797C123.608 15.0912 123.851 15.3384 124.148 15.3247C128.167 15.1816 133.612 14.9126 137.617 14.797L124.696 14.291C124.815 11.1041 125 6.879 124.987 3.66007L165.761 3.65664V13.9693H153.122C152.662 13.9693 152.291 14.3402 152.291 14.797V47.783H138.456C138.568 38.0781 137.965 24.3473 137.616 14.797C137.295 26.0781 136.632 37.3982 136.784 48.6106C136.784 49.0685 137.157 49.4394 137.616 49.4382H153.122C153.582 49.4382 153.954 49.0673 153.954 48.6106V15.6246H166.592C166.653 15.6246 166.707 15.6028 166.765 15.5903C166.696 17.1906 166.647 18.6272 166.645 19.6872C166.615 23.554 166.562 44.3511 166.552 48.7033C166.553 49.1589 166.926 49.5287 167.383 49.5264H182.89C183.35 49.5264 183.721 49.1555 183.721 48.6988C183.721 48.6827 183.724 40.7773 183.725 31.5395C186.494 42.5425 196.054 49.6031 208.422 49.5218C216.474 49.6546 224.882 46.6165 229.823 40.0459C230.087 39.7059 230.045 39.2125 229.717 38.9241C229.666 38.884 219.941 30.2311 219.888 30.1922L219.89 30.1945ZM43.9915 15.3144C39.4076 25.7061 33.2654 39.62 30.6583 45.6744V15.7139H43.2969C43.5947 15.7139 43.8443 15.549 43.9915 15.3144ZM182.051 3.71158L182.061 47.8723H168.216C168.204 43.8257 168.155 26.125 168.155 26.125C168.242 19.836 167.721 10.494 167.427 3.83865V2.9183C172.372 3.13465 177.209 3.47348 182.052 3.71044L182.051 3.71158ZM216.003 47.0023C202.579 50.3677 187.375 43.9768 183.728 30.8962C183.728 26.8416 183.731 22.5638 183.731 18.6043C187.38 5.52595 202.572 -0.83292 216.002 2.52337C220.673 3.6532 224.954 6.20591 228.01 9.89761L219.477 17.479C211.989 8.48847 197.561 12.052 197.714 24.7628C197.561 37.4726 211.984 41.0395 219.477 32.0466L228.01 39.6281C224.954 43.3209 220.672 45.8725 216.002 47.0034L216.003 47.0023Z" fill="#FBFAF5"/>
<path d="M128.452 64.7361H124.781V58.7584L123.314 59.7646L121.566 57.0608L125.2 54.7554H128.453V64.735L128.452 64.7361ZM125.193 64.3252H128.039V55.1675H125.318L122.136 57.1867L123.43 59.1865L125.194 57.9766V64.3252H125.193Z" fill="#FBFAF5"/>
<path d="M137.413 64.7362H134.067V63.0466H129.438V60.1551L133.174 54.7566H137.399V60.1219H138.702V63.0466H137.412V64.7362H137.413ZM134.48 64.3252H137V62.6356H138.29V60.5328H136.987V55.1675H133.391L129.85 60.2833V62.6356H134.48V64.3252V64.3252ZM134.521 60.5328H132.275L134.149 57.7031H134.521V60.5328ZM133.04 60.1219H134.108V58.5112L133.04 60.1219Z" fill="#FBFAF5"/>
<path d="M145.215 65.0497C144.808 65.0497 144.408 65.0142 144.014 64.9444C143.621 64.8734 143.242 64.7704 142.877 64.6342C142.512 64.498 142.169 64.3389 141.847 64.1557C141.525 63.9726 141.236 63.7688 140.979 63.5433L143.04 61.3145C143.277 61.5687 143.592 61.7953 143.986 61.9934C144.379 62.1914 144.784 62.2898 145.201 62.2898C145.391 62.2898 145.563 62.2566 145.72 62.1902C145.876 62.1239 145.954 62.0014 145.954 61.8216C145.954 61.7278 145.928 61.6465 145.876 61.5813C145.824 61.5149 145.731 61.4462 145.599 61.3763C145.467 61.3054 145.284 61.2275 145.052 61.1428C144.819 61.0581 144.528 60.9585 144.178 60.8452C143.836 60.7319 143.509 60.5979 143.197 60.4411C142.884 60.2854 142.607 60.0943 142.365 59.8676C142.124 59.641 141.932 59.3697 141.789 59.0526C141.646 58.7366 141.576 58.3555 141.576 57.9113C141.576 57.2874 141.704 56.7586 141.96 56.3247C142.216 55.8897 142.546 55.5337 142.948 55.2544C143.351 54.9751 143.803 54.7748 144.305 54.6523C144.808 54.5298 145.305 54.468 145.798 54.468C146.462 54.468 147.137 54.5951 147.823 54.8504C148.51 55.1045 149.113 55.4731 149.636 55.9539L147.532 58.0899C147.305 57.8071 147.025 57.5931 146.694 57.4466C146.363 57.3 146.064 57.2268 145.798 57.2268C145.552 57.2268 145.353 57.2623 145.201 57.3332C145.049 57.4042 144.973 57.5198 144.973 57.6801C144.973 57.8312 145.052 57.9445 145.208 58.0201C145.364 58.0956 145.617 58.1895 145.968 58.3028C146.328 58.4161 146.708 58.5478 147.106 58.6989C147.503 58.85 147.87 59.0457 148.207 59.2861C148.543 59.5265 148.82 59.8218 149.039 60.1698C149.256 60.519 149.365 60.9528 149.365 61.4714C149.365 62.0746 149.245 62.6012 149.003 63.0488C148.762 63.4964 148.444 63.8695 148.051 64.166C147.658 64.4636 147.215 64.6846 146.723 64.8311C146.229 64.9776 145.728 65.0509 145.216 65.0509L145.215 65.0497Z" fill="#FBFAF5"/>
<path d="M151.328 54.752H158.249V57.5531H154.511V58.4162H158.021V61.033H154.511V61.9671H158.49V64.7682H151.328V54.7531V54.752Z" fill="#FBFAF5"/>
<path d="M163.554 61.5425V64.7683H160.186V54.7532H164.506C165.018 54.7532 165.519 54.807 166.013 54.9157C166.505 55.0245 166.945 55.2076 167.334 55.4675C167.723 55.7273 168.035 56.0707 168.272 56.5C168.509 56.9293 168.628 57.4696 168.628 58.1198C168.628 58.77 168.512 59.2702 168.279 59.7041C168.047 60.1379 167.739 60.4916 167.356 60.7652C166.972 61.0388 166.531 61.2368 166.034 61.3593C165.538 61.4818 165.028 61.5436 164.507 61.5436H163.555L163.554 61.5425ZM163.554 57.37V58.9829H164.265C164.52 58.9829 164.755 58.9188 164.968 58.7917C165.182 58.6647 165.288 58.4506 165.288 58.1484C165.288 57.9881 165.259 57.8588 165.203 57.7592C165.147 57.6607 165.068 57.5829 164.968 57.5257C164.87 57.4696 164.758 57.4295 164.635 57.4055C164.512 57.3826 164.389 57.37 164.266 57.37H163.555H163.554Z" fill="#FBFAF5"/>
<path d="M175.346 64.767H171.964V57.5954H169.491V54.752H177.82V57.5954H175.347V64.767H175.346Z" fill="#FBFAF5"/>
<path d="M179.292 54.7507H186.212V57.5518H182.475V58.415H185.985V61.0318H182.475V61.9658H186.454V64.767H179.292V54.7519V54.7507Z" fill="#FBFAF5"/>
<path d="M191.094 59.1075L191.251 64.7658H188.096V54.7507H192.52L194.342 60.14H194.413L195.992 54.7507H200.56V64.7658H197.263L197.362 59.1361L197.277 59.1224L195.401 64.767H193.014L191.166 59.1086H191.094V59.1075Z" fill="#FBFAF5"/>
<path d="M208.834 59.562C209.071 59.6181 209.303 59.7108 209.531 59.8379C209.758 59.965 209.962 60.1252 210.141 60.3187C210.321 60.5121 210.463 60.7365 210.568 60.9906C210.673 61.2448 210.724 61.5287 210.724 61.8389C210.724 62.386 210.613 62.8462 210.391 63.2182C210.168 63.5914 209.875 63.8925 209.51 64.1237C209.146 64.3549 208.728 64.5198 208.26 64.6182C207.791 64.7178 207.31 64.767 206.818 64.767H202.256V54.752H206.391C206.798 54.752 207.232 54.7829 207.692 54.8435C208.151 54.9053 208.575 55.0278 208.964 55.211C209.353 55.3953 209.675 55.6631 209.93 56.0169C210.185 56.3706 210.314 56.8353 210.314 57.41C210.314 57.948 210.179 58.391 209.909 58.7401C209.639 59.0893 209.281 59.348 208.836 59.5185V59.5609L208.834 59.562ZM205.409 57.3699V58.6005H206.319C206.556 58.6005 206.75 58.5467 206.902 58.4379C207.054 58.3292 207.13 58.162 207.13 57.9354C207.13 57.7465 207.049 57.6057 206.888 57.5107C206.727 57.4168 206.513 57.3688 206.249 57.3688H205.41L205.409 57.3699ZM205.409 60.7651V62.1228H206.418C206.683 62.1228 206.898 62.0644 207.064 61.9465C207.23 61.8286 207.312 61.6569 207.312 61.4302C207.312 61.2986 207.277 61.1898 207.205 61.1051C207.134 61.0204 207.047 60.9517 206.942 60.9002C206.837 60.8487 206.727 60.8132 206.609 60.7937C206.49 60.7754 206.379 60.7651 206.275 60.7651H205.408H205.409Z" fill="#FBFAF5"/>
<path d="M212.224 54.752H216.558C217.051 54.752 217.542 54.8012 218.029 54.9008C218.517 55.0004 218.953 55.1744 219.337 55.4239C219.721 55.6734 220.031 56.0088 220.267 56.4278C220.504 56.8479 220.622 57.3733 220.622 58.0052C220.622 58.6371 220.471 59.1579 220.168 59.625C219.866 60.092 219.431 60.4526 218.864 60.7067L221.417 64.767H217.531L215.604 61.1887H215.505V64.767H212.222V54.752H212.224ZM215.478 58.9817H216.141C216.254 58.9817 216.379 58.9725 216.515 58.953C216.651 58.9347 216.778 58.8947 216.895 58.8329C217.013 58.7722 217.111 58.6863 217.191 58.5787C217.271 58.47 217.31 58.3269 217.31 58.1472C217.31 57.9674 217.277 57.8267 217.212 57.7225C217.146 57.6183 217.061 57.5405 216.957 57.489C216.854 57.4374 216.741 57.4043 216.619 57.3905C216.497 57.3768 216.385 57.3688 216.281 57.3688H215.477V58.9817H215.478Z" fill="#FBFAF5"/>
<path d="M222.838 54.752H229.759V57.5531H226.021V58.4162H229.531V61.033H226.021V61.9671H230V64.7682H222.838V54.7531V54.752Z" fill="#FBFAF5"/>
<path d="M119.708 52.7702L116.216 65.4922L117.018 65.7103L120.51 52.9883L119.708 52.7702Z" fill="#FBFAF5"/>
</svg>
