<svg width="197" height="43" viewBox="0 0 197 43" fill="none" xmlns="http://www.w3.org/2000/svg">
<path d="M12.1984 12.7621L0.650688 13.167C0.435551 13.1734 0.25838 13.0088 0.245725 12.7937C0.195105 9.75649 -0.0706515 5.44744 0.017934 2.45451C0.017934 2.10017 0.302673 1.81543 0.650688 1.81543H37.034C37.382 1.81543 37.6668 2.10017 37.6668 2.44818V12.7621C37.6668 13.1101 37.382 13.3948 37.034 13.3948H25.4863L26.119 12.7621V41.8814C26.119 42.2294 25.8343 42.5141 25.4863 42.5141H12.1984C11.8504 42.5141 11.5657 42.2294 11.5657 41.8814L11.5783 34.7186C11.572 29.9287 12.0972 17.7418 12.1984 12.7621ZM12.1984 12.7621C12.4705 21.2157 12.9514 33.5037 12.8312 41.8814L12.1984 41.2486H25.4926L24.8598 41.8814V12.7621C24.8598 12.4141 25.1446 12.1293 25.4926 12.1293H37.0404L36.4076 12.7621V2.45451L37.0404 3.08726H0.650688L1.28344 2.45451C1.32141 5.42213 1.15056 9.75016 1.04932 12.7621L0.64436 12.3571L12.1921 12.7621H12.1984Z" fill="#F9F8F3"/>
<path d="M56.9847 35.0097L42.0011 35.5095L42.4694 35.1868L41.2545 38.6607C40.8558 39.8249 40.4066 40.9639 39.951 42.1028C39.8561 42.3559 39.6093 42.5078 39.3562 42.5078H25.8406C25.4926 42.5078 25.2078 42.2231 25.2078 41.8687C25.1319 41.6346 42.4567 2.42285 42.4947 2.18873C42.5959 1.94829 42.83 1.80908 43.0768 1.80908H56.1432C56.4026 1.80908 56.6241 1.96727 56.7253 2.18873L73.9742 41.6093C74.164 42.0206 73.8349 42.5205 73.3857 42.5141C69.5069 42.4951 63.578 42.2167 59.6423 42.1281C59.5347 42.1281 59.4335 42.0649 59.4018 41.9636L56.9974 34.997L56.9847 35.0097ZM56.9847 35.0097L59.8701 41.7865L59.6296 41.6219C63.5717 41.508 69.4753 41.2803 73.373 41.236L72.7846 42.1408L55.561 2.70759L56.1432 3.08724H43.0768L43.6589 2.70759L26.4227 42.1345L25.8406 41.2486H39.3562L38.7614 41.6536C39.4574 39.6541 40.7103 36.813 41.5329 34.8325C41.6025 34.63 41.7986 34.5035 42.0011 34.5098L56.9847 35.0097Z" fill="#F9F8F3"/>
<path d="M53.3211 25.4297C52.7327 24.2718 52.1632 23.2214 51.5558 22.152C50.5497 20.0576 49.7587 17.9126 48.8982 15.7486H50.0814L46.2533 25.6638L45.6648 24.8033C46.7025 24.8033 48.1768 24.8412 49.1956 24.8666C50.4484 25.0627 52.0493 25.3285 53.3275 25.436M53.3275 25.436C51.5178 25.7144 49.6069 26.1257 47.7276 26.0498L45.6711 26.0688C45.3231 26.0688 45.0384 25.7904 45.0384 25.4424C45.0384 25.3601 45.051 25.2778 45.0827 25.2082L48.9108 15.293C49.0943 14.7615 49.9106 14.7678 50.0941 15.293C50.7648 17.0267 51.4229 18.7858 52.0493 20.5512C52.2518 21.1966 52.5745 21.861 52.701 22.519C52.7833 22.9303 53.2326 24.9868 53.3338 25.436" fill="#F9F8F3"/>
<path d="M66.7988 21.2661C66.7229 12.5595 71.6584 4.29569 80.093 1.43565C87.1102 -0.892887 95.3044 -0.47527 101.651 3.4921C103.606 4.72597 105.315 6.32683 106.726 8.14916C106.928 8.41492 106.89 8.78824 106.643 9.00338L98.2973 16.4952C98.0252 16.742 97.6013 16.704 97.3798 16.4129C91.8559 8.90214 80.6372 11.3382 80.7574 21.2598C80.6435 31.1877 91.8559 33.6175 97.3798 26.1067C97.595 25.8346 97.9936 25.784 98.2657 25.9991C98.31 26.0308 106.599 33.4846 106.643 33.5163C106.89 33.7377 106.922 34.111 106.726 34.3705C105.315 36.1928 103.606 37.8 101.651 39.0275C95.3044 42.9949 87.1039 43.4188 80.093 41.084C71.671 38.2113 66.7229 29.9665 66.7988 21.2598M66.7988 21.2598C66.8431 36.1105 81.6812 43.7922 95.0197 40.4892C99.2401 39.4578 103.094 37.0723 105.726 33.6048L105.808 34.4591L97.4621 26.9673L98.3859 26.885C92.1533 35.3386 79.3843 32.3836 79.5045 21.2598C79.3843 10.1297 92.1596 7.18105 98.3859 15.6346L97.4621 15.5524L105.808 8.06058L105.726 8.91479C103.094 5.4473 99.2401 3.0555 95.0197 2.03043C81.6749 -1.26621 66.8684 6.41542 66.7988 21.2598Z" fill="#F9F8F3"/>
<path d="M117.881 12.6857L106.333 13.0907C106.118 13.097 105.941 12.9325 105.928 12.7173C105.878 9.68644 105.612 5.37739 105.694 2.38446C105.694 2.03645 105.979 1.75171 106.333 1.75171H142.717C143.065 1.75171 143.349 2.03645 143.349 2.38446V12.6857C143.349 13.0337 143.065 13.3184 142.717 13.3184H131.169L131.802 12.6857V41.805C131.802 42.153 131.517 42.4378 131.169 42.4378H117.875C117.527 42.4378 117.242 42.153 117.242 41.805L117.255 34.6422C117.248 29.8523 117.773 17.6655 117.875 12.6857M117.875 12.6857C118.147 21.1393 118.628 33.4274 118.507 41.805L117.875 41.1723H131.169L130.536 41.805V12.6857C130.536 12.3377 130.821 12.0529 131.169 12.0529H142.717L142.084 12.6857V2.37814L142.717 3.01089H106.333L106.966 2.37814C107.004 5.34575 106.833 9.67378 106.732 12.6857L106.327 12.2807L117.875 12.6857Z" fill="#F9F8F3"/>
<path d="M143.4 2.45444C147.38 2.3089 152.727 1.95456 156.694 1.81536C157.042 1.8027 157.333 2.08111 157.333 2.42913C157.34 2.42913 157.321 41.8687 157.327 41.8813C157.327 42.2293 157.042 42.5141 156.694 42.5141H143.4C143.052 42.5141 142.767 42.2293 142.767 41.8813L142.818 21.9243C142.729 16.3181 143.185 8.10493 143.4 2.45444ZM143.4 2.45444C143.621 8.2125 144.052 16.742 143.982 22.4115L144.033 41.8813L143.4 41.2486H156.694L156.061 41.8813V2.45444L156.694 3.09352C152.955 2.88471 147.241 2.63794 143.4 2.45444Z" fill="#F9F8F3"/>
<path d="M156.707 21.266C156.681 13.0971 160.889 5.44716 168.508 2.0556C175.867 -1.01325 184.89 -0.734843 191.755 3.49195C193.717 4.71949 195.444 6.32669 196.861 8.14902C197.064 8.41477 197.026 8.7881 196.779 9.00956L188.389 16.5014C188.117 16.7418 187.693 16.7038 187.471 16.4191C181.954 8.92098 170.621 11.3254 170.748 21.266C170.621 31.2066 181.954 33.6047 187.471 26.1129C187.686 25.8408 188.085 25.7902 188.363 26.0053C188.395 26.0306 196.754 33.4971 196.785 33.5224C197.038 33.7439 197.07 34.1172 196.868 34.383C192.647 40.0208 185.465 42.6278 178.587 42.5139C166.008 42.5898 156.713 33.9717 156.713 21.2723M156.713 21.2723C156.751 36.1484 171.779 43.811 185.098 40.5017C189.332 39.4703 193.21 37.0912 195.862 33.6173L195.944 34.4716L187.554 26.9798L188.471 26.8975C182.251 35.3258 169.356 32.4088 169.488 21.266C169.356 10.1232 182.251 7.20621 188.471 15.6345L187.554 15.5522L195.944 8.06043L195.862 8.92098C193.21 5.44716 189.332 3.06168 185.098 2.03662C171.747 -1.2537 156.764 6.352 156.713 21.266" fill="#F9F8F3"/>
</svg>
