<?xml version="1.0" standalone="no"?>
<!DOCTYPE svg PUBLIC "-//W3C//DTD SVG 20010904//EN"
 "http://www.w3.org/TR/2001/REC-SVG-20010904/DTD/svg10.dtd">
<svg version="1.0" xmlns="http://www.w3.org/2000/svg"
 width="300.000000pt" height="300.000000pt" viewBox="0 0 300.000000 300.000000"
 preserveAspectRatio="xMidYMid meet">
<metadata>
Created by potrace 1.14, written by Peter Selinger 2001-2017
</metadata>
<g transform="translate(0.000000,300.000000) scale(0.100000,-0.100000)"
fill="#000000" stroke="none">
<path d="M0 1500 l0 -1500 1500 0 1500 0 0 1500 0 1500 -1500 0 -1500 0 0
-1500z m2170 849 c36 -5 93 -23 127 -39 64 -29 153 -103 153 -126 0 -7 -41
-49 -91 -94 l-90 -81 -44 40 c-128 118 -295 47 -295 -126 1 -151 134 -225 266
-148 23 13 44 31 48 40 3 8 13 15 22 15 19 0 184 -147 184 -164 0 -16 -66 -79
-110 -105 l-35 -21 55 0 c71 0 159 -23 223 -57 58 -32 130 -99 125 -117 -2 -7
-43 -48 -91 -91 l-88 -78 -32 30 c-52 50 -93 66 -157 61 -99 -7 -153 -70 -153
-178 0 -106 67 -180 164 -180 50 0 121 32 149 67 10 14 24 23 29 21 20 -6 181
-153 181 -164 0 -21 -100 -105 -153 -128 -241 -107 -514 -24 -616 187 l-30 62
-1 -143 0 -143 -147 3 -148 3 0 288 0 287 -107 0 -108 0 0 -290 0 -290 -150 0
-150 0 0 118 c0 66 3 195 7 288 7 162 8 166 14 84 4 -47 7 -169 8 -272 l1
-188 120 0 120 0 0 295 0 295 115 0 115 0 0 85 0 85 -350 0 -350 0 0 -90 0
-90 93 -1 c91 -1 91 -1 37 -11 -30 -5 -77 -7 -105 -6 l-50 3 -3 102 -3 103
-167 2 -167 3 -3 140 c-2 77 0 205 5 285 l8 145 6 -120 c3 -66 7 -186 8 -267
l1 -148 115 0 115 0 2 288 3 287 118 3 117 3 0 89 0 90 -349 0 -348 0 -6 -87
c-3 -49 -3 -90 -1 -92 2 -2 47 -7 101 -10 l98 -6 -105 -5 c-58 -3 -108 -3
-112 0 -3 3 -8 55 -10 115 l-3 110 380 0 380 0 5 -102 5 -101 45 104 44 105
144 -3 143 -3 89 -205 c49 -113 96 -218 104 -235 8 -16 25 -55 37 -85 44 -108
117 -180 231 -229 57 -23 75 -26 188 -26 114 0 130 2 181 26 31 15 75 44 98
64 l42 38 -33 34 c-18 19 -50 48 -70 65 l-38 29 -37 -29 c-129 -101 -300 -44
-332 110 -44 209 165 346 332 216 43 -33 41 -34 128 47 l52 49 -47 42 c-66 60
-139 86 -257 92 -102 5 -173 -9 -253 -50 -59 -30 -142 -113 -171 -171 -14 -28
-25 -45 -25 -38 0 29 58 128 101 172 58 59 134 98 224 114 89 17 106 17 185 4z
m-1047 -1825 c-9 -38 -19 -62 -21 -52 -4 18 27 132 34 125 3 -2 -3 -35 -13
-73z m107 6 c0 -53 -2 -60 -20 -60 -15 0 -20 7 -20 26 0 14 -10 34 -22 44
l-22 17 25 13 c20 10 22 10 12 -1 -17 -18 -16 -29 2 -29 10 0 15 -10 15 -30 0
-16 5 -30 10 -30 15 0 13 97 -2 103 -8 3 -6 6 5 6 14 1 17 -8 17 -59z m100 35
c0 -14 5 -34 12 -44 9 -15 8 -22 -5 -35 -17 -18 -47 -22 -47 -6 0 6 -11 10
-25 10 -33 0 -33 29 1 69 32 39 64 41 64 6z m120 15 c13 -9 13 -12 -3 -24 -16
-12 -16 -14 -2 -20 11 -4 15 -15 13 -33 -2 -22 -9 -29 -31 -31 -42 -5 -62 5
-47 23 6 7 19 12 28 9 9 -2 7 1 -5 7 -30 16 -37 39 -17 60 19 21 41 24 64 9z
m110 -10 c0 -14 -7 -20 -22 -21 l-23 -2 23 -4 c12 -2 22 -10 22 -16 0 -7 3
-22 6 -34 6 -21 3 -23 -40 -23 l-46 0 0 53 c0 30 3 57 7 60 3 4 21 7 40 7 26
0 33 -4 33 -20z m110 0 c5 -8 9 -6 13 4 5 11 20 16 52 16 38 0 45 -3 45 -20 0
-11 -7 -20 -15 -20 -11 0 -15 -11 -15 -40 0 -33 -3 -40 -20 -40 -17 0 -20 7
-20 40 0 44 -17 53 -38 20 -7 -11 -21 -20 -32 -20 -13 0 -20 -7 -20 -20 0 -13
-7 -20 -20 -20 -17 0 -20 7 -20 53 0 30 3 57 8 61 10 11 74 -1 82 -14z m200 0
c0 -14 -7 -20 -22 -21 l-23 -2 23 -4 c12 -2 22 -10 22 -16 0 -7 3 -22 6 -34 6
-21 3 -23 -40 -23 l-46 0 0 53 c0 30 3 57 7 60 3 4 21 7 40 7 26 0 33 -4 33
-20z m81 -7 l11 -28 10 28 c7 19 16 27 34 27 23 0 24 -3 24 -60 0 -53 -2 -60
-20 -60 -12 0 -20 7 -21 18 -1 16 -2 16 -6 0 -2 -10 -13 -18 -24 -18 -11 0
-19 7 -20 18 -1 16 -2 16 -6 0 -2 -10 -13 -18 -24 -18 -17 0 -19 7 -19 60 0
57 1 60 25 60 18 0 29 -8 36 -27z m162 18 c22 -9 25 -15 23 -58 l-1 -48 -42
-3 -43 -3 0 60 c0 66 8 73 63 52z m122 -4 c14 -11 17 -22 12 -45 -4 -17 -2
-34 3 -37 18 -11 10 -25 -15 -25 -14 0 -25 6 -26 13 0 10 -2 10 -6 0 -2 -7
-13 -13 -24 -13 -17 0 -19 8 -19 60 0 59 0 60 28 60 16 0 36 -6 47 -13z m123
-9 c3 -14 -4 -18 -25 -19 -23 -1 -24 -2 -5 -6 12 -2 22 -10 22 -16 0 -7 3 -22
6 -34 6 -21 3 -23 -40 -23 l-46 0 0 53 c0 30 3 57 7 61 4 4 23 6 43 4 24 -2
36 -9 38 -20z"/>
<path d="M1171 2273 c-15 -29 -321 -731 -321 -738 0 -3 52 -4 116 -3 l116 3
26 63 26 62 85 -1 c47 -1 115 -5 151 -9 55 -6 44 -7 -72 -8 -75 -1 -139 -6
-142 -10 -2 -4 -14 -31 -25 -60 l-21 -52 190 0 190 0 -21 51 c-27 70 -18 73
10 4 l23 -55 96 1 c54 1 109 4 123 8 l25 6 -165 378 -165 377 -117 0 c-102 0
-120 -2 -128 -17z m174 -326 c36 -112 30 -124 -14 -33 l-38 79 -25 -64 -24
-64 53 -9 c29 -5 53 -13 53 -17 0 -12 -130 -23 -141 -12 -10 10 39 153 72 215
11 21 12 21 26 2 7 -10 25 -54 38 -97z"/>
<path d="M830 1833 c0 -135 2 -244 4 -242 3 3 100 223 197 447 l18 42 -109 0
-110 0 0 -247z"/>
<path d="M1764 1575 c15 -31 26 -59 26 -61 0 -2 27 -4 60 -4 l60 0 1 -132 0
-133 20 44 c29 65 83 134 130 167 l42 29 -84 13 c-95 14 -187 53 -243 102
l-37 33 25 -58z"/>
<path d="M2223 1496 c-126 -31 -234 -115 -285 -221 -25 -54 -28 -70 -28 -166
0 -98 2 -110 30 -166 119 -238 482 -307 693 -133 20 17 37 35 37 39 0 5 -32
36 -70 70 l-70 63 -34 -30 c-46 -40 -96 -55 -167 -50 -69 5 -122 41 -153 103
-83 166 48 353 220 315 43 -10 108 -48 126 -74 6 -8 148 111 148 125 0 4 -17
22 -37 39 -97 85 -266 121 -410 86z"/>
<path d="M1634 1453 c3 -21 9 -194 13 -385 l6 -348 114 0 113 0 0 379 0 378
-52 7 c-29 3 -86 6 -127 6 l-74 0 7 -37z"/>
<path d="M1271 551 c-27 -38 -26 -51 3 -51 13 0 26 -6 29 -12 3 -9 10 -8 23 6
14 13 15 20 7 23 -7 3 -13 18 -13 34 0 38 -22 38 -49 0z m29 -16 c0 -8 -7 -15
-16 -15 -14 0 -14 3 -4 15 7 8 14 15 16 15 2 0 4 -7 4 -15z"/>
</g>
</svg>
